<?xml version="1.0" encoding="utf-8"?>
<!-- Generator: Adobe Illustrator 16.0.0, SVG Export Plug-In . SVG Version: 6.00 Build 0)  -->
<!DOCTYPE svg PUBLIC "-//W3C//DTD SVG 1.1//EN" "http://www.w3.org/Graphics/SVG/1.1/DTD/svg11.dtd">
<svg version="1.1" id="Layer_1" xmlns="http://www.w3.org/2000/svg" xmlns:xlink="http://www.w3.org/1999/xlink" x="0px" y="0px"
	 width="500px" height="500px" viewBox="0 0 500 500" enable-background="new 0 0 500 500" xml:space="preserve">
<g>
	<path fill-rule="evenodd" clip-rule="evenodd" fill="#5C4282" d="M478.43,433.465c0,24.187-19.61,43.797-43.795,43.797H65.391
		c-24.187,0-43.795-19.61-43.795-43.797V64.22c0-24.185,19.608-43.795,43.795-43.795h369.244c24.185,0,43.795,19.61,43.795,43.795
		V433.465z"/>
	<g>
		<path fill="#FFFFFF" d="M136.118,109.14h112.126c22.195,0,38.747,0.927,49.653,2.774c10.906,1.851,20.665,5.71,29.275,11.576
			c8.61,5.869,15.785,13.681,21.525,23.439s8.61,20.698,8.61,32.815c0,13.14-3.54,25.194-10.619,36.164
			c-7.08,10.972-16.68,19.2-28.797,24.683c17.092,4.975,30.231,13.46,39.416,25.448c9.185,11.992,13.776,26.088,13.776,42.286
			c0,12.758-2.966,25.162-8.897,37.216c-5.932,12.055-14.033,21.688-24.3,28.893c-10.27,7.208-22.932,11.643-37.981,13.299
			c-9.441,1.022-32.211,1.659-68.309,1.913h-95.479V109.14z M192.755,155.828v64.865h37.12c22.067,0,35.781-0.317,41.138-0.957
			c9.692-1.148,17.316-4.497,22.865-10.045s8.323-12.85,8.323-21.909c0-8.673-2.392-15.72-7.175-21.143
			c-4.784-5.42-11.896-8.706-21.335-9.854c-5.614-0.637-21.75-0.957-48.409-0.957H192.755z M192.755,267.38v75.005h52.427
			c20.408,0,33.356-0.573,38.843-1.722c8.419-1.53,15.274-5.262,20.568-11.193c5.292-5.932,7.941-13.872,7.941-23.822
			c0-8.419-2.042-15.562-6.123-21.43c-4.084-5.866-9.982-10.142-17.699-12.82c-7.72-2.679-24.462-4.018-50.227-4.018H192.755z"/>
	</g>
</g>
</svg>
